<?xml version="1.0" encoding="UTF-8" standalone="no"?><!DOCTYPE svg PUBLIC "-//W3C//DTD SVG 1.1//EN" "http://www.w3.org/Graphics/SVG/1.1/DTD/svg11.dtd"><svg width="100%" height="100%" viewBox="0 0 1024 1024" version="1.1" xmlns="http://www.w3.org/2000/svg" xmlns:xlink="http://www.w3.org/1999/xlink" xml:space="preserve" xmlns:serif="http://www.serif.com/" style="fill-rule:evenodd;clip-rule:evenodd;stroke-linecap:round;stroke-linejoin:round;stroke-miterlimit:10;"><circle cx="512" cy="512" r="512" style="fill:#e9e6d1;fill-opacity:0.66;"/><path d="M512,0c282.58,0 512,229.42 512,512c0,282.58 -229.42,512 -512,512c-282.58,-0 -512,-229.42 -512,-512c0,-282.58 229.42,-512 512,-512Zm0,41.667c-259.584,-0 -470.333,210.749 -470.333,470.333c-0,259.584 210.749,470.333 470.333,470.333c259.584,0 470.333,-210.749 470.333,-470.333c0,-259.584 -210.749,-470.333 -470.333,-470.333Z" style="fill-opacity:0.66;"/><g id="Untitled"><g><g><path d="M422.414,550.631l27.421,-64.808l317.247,-3.845l88.105,109.269l-325.186,72.976l-173.617,150.528l-103.714,-118l169.744,-146.12Z" style="fill:#db6e6e;fill-opacity:0.66;fill-rule:nonzero;"/><path d="M549.214,227.115l305.973,364.652c-100.579,26.964 -211.464,50.451 -325.187,72.977l-165.364,143.548l-3.652,31.076l-129.845,-154.74l30.755,1.215l165.365,-143.552l121.955,-315.176Z" style="fill:none;fill-rule:nonzero;stroke:#000;stroke-width:54.7px;"/><path d="M428.658,752.718l-44.032,-52.474" style="fill:none;fill-rule:nonzero;stroke:#000;stroke-width:36.47px;"/><path d="M504.629,686.762l-44.032,-52.468" style="fill:none;fill-rule:nonzero;stroke:#000;stroke-width:36.47px;"/><path d="M620.43,644.448l-67.776,-80.77" style="fill:none;fill-rule:nonzero;stroke:#000;stroke-width:36.47px;"/><path d="M728.192,620.269l-95.82,-114.196" style="fill:none;fill-rule:nonzero;stroke:#000;stroke-width:36.47px;"/></g><g><path d="M304.368,495.888c-13.824,-24.358 -44.448,-32.701 -68.399,-18.638c-23.951,14.063 -32.161,45.209 -18.337,69.565c13.824,24.358 44.448,32.703 68.399,18.64c23.952,-14.063 32.162,-45.211 18.337,-69.567Z" style="fill:#db6e6e;fill-opacity:0.66;stroke:#000;stroke-width:36.45px;"/><path d="M375.484,350.346c-9.192,-16.214 -29.566,-21.777 -45.51,-12.427c-15.942,9.35 -21.416,30.073 -12.225,46.287c9.192,16.214 29.566,21.777 45.51,12.427c15.942,-9.35 21.416,-30.073 12.225,-46.287Z" style="fill:#db6e6e;fill-opacity:0.66;stroke:#000;stroke-width:18.22px;"/><path d="M304.487,218.693c-6.02,-11.393 -19.981,-15.666 -31.184,-9.544c-11.203,6.122 -15.408,20.322 -9.388,31.715c6.017,11.393 19.978,15.667 31.182,9.543c11.203,-6.121 15.407,-20.32 9.39,-31.714Z" style="fill:#db6e6e;fill-opacity:0.66;stroke:#000;stroke-width:18.22px;"/></g></g></g></svg>