<?xml version="1.0" encoding="UTF-8" standalone="no"?><!DOCTYPE svg PUBLIC "-//W3C//DTD SVG 1.1//EN" "http://www.w3.org/Graphics/SVG/1.1/DTD/svg11.dtd"><svg width="100%" height="100%" viewBox="0 0 4267 4267" version="1.1" xmlns="http://www.w3.org/2000/svg" xmlns:xlink="http://www.w3.org/1999/xlink" xml:space="preserve" xmlns:serif="http://www.serif.com/" style="fill-rule:evenodd;clip-rule:evenodd;stroke-linecap:round;stroke-linejoin:round;stroke-miterlimit:10;"><circle cx="2133.33" cy="2133.33" r="2133.33" style="fill:#e9e6d1;fill-opacity:0.66;"/><path d="M2133.33,0c1177.42,0 2133.33,955.917 2133.33,2133.33c-0,1177.42 -955.917,2133.33 -2133.33,2133.33c-1177.42,-0 -2133.33,-955.917 -2133.33,-2133.33c0,-1177.42 955.917,-2133.33 2133.33,-2133.33Zm0,173.613c-1081.6,-0 -1959.72,878.12 -1959.72,1959.72c-0,1081.6 878.12,1959.72 1959.72,1959.72c1081.6,0 1959.72,-878.121 1959.72,-1959.72c0,-1081.6 -878.121,-1959.72 -1959.72,-1959.72Z" style="fill-opacity:0.66;"/><g id="Untitled"><g><g><path d="M1760.06,2294.3l114.255,-270.033l1321.86,-16.021l367.104,455.287l-1354.94,304.067l-723.405,627.2l-432.141,-491.667l707.266,-608.833Z" style="fill:#6ecedb;fill-opacity:0.66;fill-rule:nonzero;"/><path d="M2288.39,946.313l1274.89,1519.38c-419.079,112.35 -881.1,210.212 -1354.95,304.071l-689.016,598.116l-15.217,129.484l-541.021,-644.75l128.146,5.062l689.021,-598.133l508.146,-1313.23Z" style="fill:#fff;fill-opacity:0;fill-rule:nonzero;stroke:#000;stroke-width:227.92px;"/><path d="M1786.08,3136.33l-183.467,-218.642" style="fill:none;fill-rule:nonzero;stroke:#000;stroke-width:151.96px;"/><path d="M2102.62,2861.51l-183.467,-218.616" style="fill:none;fill-rule:nonzero;stroke:#000;stroke-width:151.96px;"/><path d="M2585.12,2685.2l-282.4,-336.542" style="fill:none;fill-rule:nonzero;stroke:#000;stroke-width:151.96px;"/><path d="M3034.13,2584.45l-399.25,-475.816" style="fill:none;fill-rule:nonzero;stroke:#000;stroke-width:151.96px;"/></g><g><path d="M1268.2,2066.2c-57.6,-101.492 -185.2,-136.254 -284.996,-77.658c-99.796,58.596 -134.004,188.371 -76.404,289.854c57.6,101.492 185.2,136.262 284.996,77.667c99.8,-58.596 134.008,-188.38 76.404,-289.863Z" style="fill:#6ecedb;fill-opacity:0.66;stroke:#000;stroke-width:151.88px;"/><path d="M1564.52,1459.78c-38.3,-67.558 -123.192,-90.737 -189.625,-51.779c-66.425,38.958 -89.234,125.304 -50.938,192.862c38.3,67.559 123.192,90.738 189.625,51.779c66.425,-38.958 89.234,-125.304 50.938,-192.862Z" style="fill:#6ecedb;fill-opacity:0.66;stroke:#000;stroke-width:75.92px;"/><path d="M1268.7,911.221c-25.083,-47.471 -83.254,-65.275 -129.934,-39.767c-46.679,25.509 -64.2,84.675 -39.116,132.146c25.071,47.471 83.242,65.279 129.925,39.763c46.679,-25.505 64.196,-84.667 39.125,-132.142Z" style="fill:#6ecedb;fill-opacity:0.66;stroke:#000;stroke-width:75.92px;"/></g></g></g></svg>